<?xml version="1.0" encoding="UTF-8"?>
<!DOCTYPE svg PUBLIC "-//W3C//DTD SVG 1.1//EN" "http://www.w3.org/Graphics/SVG/1.1/DTD/svg11.dtd">
<!-- Creator: CorelDRAW -->
<svg xmlns="http://www.w3.org/2000/svg" xml:space="preserve" width="7.68067in" height="3.06748in" version="1.1" style="shape-rendering:geometricPrecision; text-rendering:geometricPrecision; image-rendering:optimizeQuality; fill-rule:evenodd; clip-rule:evenodd"
viewBox="0 0 7680.67 3067.48"
 xmlns:xlink="http://www.w3.org/1999/xlink"
 xmlns:xodm="http://www.corel.com/coreldraw/odm/2003">
 <defs>
  <style type="text/css">
   <![CDATA[
    .str0 {stroke:#373435;stroke-width:27.78;stroke-miterlimit:2.61313}
    .fil4 {fill:none}
    .fil21 {fill:#4B4B4D}
    .fil18 {fill:#ED3237}
    .fil17 {fill:#00AFEF}
    .fil15 {fill:#00AFEF}
    .fil19 {fill:#00A859}
    .fil5 {fill:#2078FF}
    .fil22 {fill:#414753}
    .fil16 {fill:#4D5760}
    .fil9 {fill:#51AF94}
    .fil20 {fill:#636B78}
    .fil2 {fill:#81A6C3}
    .fil12 {fill:#895CA4}
    .fil1 {fill:#C8D4E2}
    .fil3 {fill:#ED9222}
    .fil7 {fill:#F1B91D}
    .fil10 {fill:#F35755}
    .fil13 {fill:#F9BD93}
    .fil0 {fill:#FACE63}
    .fil14 {fill:#FDCAA5}
    .fil11 {fill:#FE9951}
    .fil25 {fill:#FF7A03}
    .fil8 {fill:#FFFFFD}
    .fil6 {fill:white}
    .fil23 {fill:url(#id8)}
    .fil26 {fill:url(#id9)}
    .fil24 {fill:url(#id10)}
   ]]>
  </style>
    <clipPath id="id0">
     <path d="M232.93 13.89l816.6 0c120.48,0 219.04,98.57 219.04,219.04l0 801.79c0,120.48 -98.57,219.04 -219.04,219.04l-816.6 0c-120.48,0 -219.04,-98.57 -219.04,-219.04l0 -801.79c0,-120.48 98.57,-219.04 219.04,-219.04z"/>
    </clipPath>
    <clipPath id="id1">
     <path d="M2365.67 13.89l816.6 0c120.48,0 219.04,98.57 219.04,219.04l0 801.79c0,120.48 -98.57,219.04 -219.04,219.04l-816.6 0c-120.48,0 -219.04,-98.57 -219.04,-219.04l0 -801.79c0,-120.48 98.57,-219.04 219.04,-219.04z"/>
    </clipPath>
    <clipPath id="id2">
     <path d="M4498.4 13.89l816.6 0c120.48,0 219.04,98.57 219.04,219.04l0 801.79c0,120.48 -98.57,219.04 -219.04,219.04l-816.6 0c-120.48,0 -219.04,-98.57 -219.04,-219.04l0 -801.79c0,-120.48 98.57,-219.04 219.04,-219.04z"/>
    </clipPath>
    <clipPath id="id3">
     <path d="M6631.14 13.89l816.6 0c120.48,0 219.04,98.57 219.04,219.04l0 801.79c0,120.48 -98.57,219.04 -219.04,219.04l-816.6 0c-120.48,0 -219.04,-98.57 -219.04,-219.04l0 -801.79c0,-120.48 98.57,-219.04 219.04,-219.04z"/>
    </clipPath>
    <clipPath id="id4">
     <path d="M232.93 1813.71l816.6 0c120.48,0 219.04,98.57 219.04,219.04l0 801.79c0,120.48 -98.57,219.04 -219.04,219.04l-816.6 0c-120.48,0 -219.04,-98.57 -219.04,-219.04l0 -801.79c0,-120.48 98.57,-219.04 219.04,-219.04z"/>
    </clipPath>
    <clipPath id="id5">
     <path d="M2365.67 1813.71l816.6 0c120.48,0 219.04,98.57 219.04,219.04l0 801.79c0,120.48 -98.57,219.04 -219.04,219.04l-816.6 0c-120.48,0 -219.04,-98.57 -219.04,-219.04l0 -801.79c0,-120.48 98.57,-219.04 219.04,-219.04z"/>
    </clipPath>
    <clipPath id="id6">
     <path d="M4498.4 1813.71l816.6 0c120.48,0 219.04,98.57 219.04,219.04l0 801.79c0,120.48 -98.57,219.04 -219.04,219.04l-816.6 0c-120.48,0 -219.04,-98.57 -219.04,-219.04l0 -801.79c0,-120.48 98.57,-219.04 219.04,-219.04z"/>
    </clipPath>
    <clipPath id="id7">
     <path d="M6631.14 1813.71l816.6 0c120.48,0 219.04,98.57 219.04,219.04l0 801.79c0,120.48 -98.57,219.04 -219.04,219.04l-816.6 0c-120.48,0 -219.04,-98.57 -219.04,-219.04l0 -801.79c0,-120.48 98.57,-219.04 219.04,-219.04z"/>
    </clipPath>
  <linearGradient id="id8" gradientUnits="userSpaceOnUse" x1="4949.72" y1="2095.4" x2="4862.28" y2="2754.53">
   <stop offset="0" style="stop-opacity:1; stop-color:#09CA93"/>
   <stop offset="0.760784" style="stop-opacity:1; stop-color:#107A49"/>
   <stop offset="1" style="stop-opacity:1; stop-color:#2D382F"/>
  </linearGradient>
  <linearGradient id="id9" gradientUnits="userSpaceOnUse" x1="6684.53" y1="2852.78" x2="7162.02" y2="2616.33">
   <stop offset="0" style="stop-opacity:1; stop-color:#FC7B00"/>
   <stop offset="1" style="stop-opacity:1; stop-color:#FD5501"/>
  </linearGradient>
  <linearGradient id="id10" gradientUnits="userSpaceOnUse" xlink:href="#id9" x1="7381.64" y1="2011.83" x2="6908.32" y2="2235.29">
  </linearGradient>
 </defs>
 <g id="Layer_x0020_1">
  <metadata id="CorelCorpID_0Corel-Layer"/>
  <g id="_2217487864240">
   <g>
   </g>
   <g style="clip-path:url(#id0)">
    <g>
     <g>
      <path class="fil0" d="M707.74 516.69c-0.14,11.06 7.77,42.48 6.82,47.96 -0.91,5.25 -6.05,6.85 -10.92,4.47 -14.53,-7.1 -31.22,-17.52 -47.33,-25.79 -3.16,-2.06 -5.82,-3.11 -9.03,-5.03 -4.23,-2.53 -4.82,-4.03 -9.48,-1.41 -6,3.37 -11.48,6.19 -17.39,9.55 -11.79,6.71 -23.56,12.7 -35.34,19.3 -4.82,2.7 -15.66,9.72 -17.37,-0.95 -0.54,-3.37 10.11,-64.09 11.11,-70.6 1,-7.12 -0.8,-6.59 -4.86,-10.82 -2.98,-3.09 -5.48,-6.15 -8.53,-8.92 -4.31,-4.66 -11.85,-13.31 -16.37,-16.87 -6.12,-4.82 -10.99,-12.37 -16.27,-16.11 -2.13,-2.95 -8.96,-7.77 -4.77,-14.28 2.76,-4.3 10.81,-4.18 17.15,-5.2 12.57,-2.03 25.74,-3.82 38.14,-5.83l20.24 -3.04 3.78 -9.16c2.73,-3.4 20.76,-43.54 24.51,-51.23 2.19,-4.49 3.98,-9.76 8.78,-10.24 5.94,-0.59 7.26,4.91 9.55,9.25 3.02,5.72 9.25,21.85 12.46,25.61l16.59 35.67 8.9 1.48 39.57 5.89c9.34,1.92 36.89,1.89 25.98,16.2l-22.36 22.75c-3.94,4.1 -7.33,7.61 -11.26,11.71 -16.8,17.52 -17.74,12.48 -15.38,26.48 1,5.91 2.55,13.28 3.1,19.15zm-357.89 -186.96l75.96 -0 0 202.73c-11.67,-0.57 -17.32,-3.01 -26.89,-4.64 -1.9,-1.49 -10.56,-4.3 -19.2,-11 -19.2,-14.91 -29.83,-35.78 -29.91,-62.75 -0.12,-41.25 -0.62,-83.14 0.04,-124.33zm75.96 -50.74l-25.28 0.05c-22.71,-0.02 -45.43,-0 -68.14,-0 -13.55,0 -18.36,0.16 -26.09,7.97 -7.81,7.87 -7.18,14.65 -7.17,27.67 0,46.03 0.47,92.3 -0.02,138.3 0.14,42.77 15.47,71.19 36.65,92.75 20.45,20.81 51.19,37.43 93.41,37.43 2.85,12.03 4.77,21.79 8.74,33.05 3.17,9.01 8.18,22.25 13.02,29.73 26.42,45.01 56.81,75.84 105.78,97.01 6.6,2.85 15.12,5.14 21.07,7.93l-2.17 26.91 -9.34 109.25 113.06 0.22 37.09 0 -11.4 -136.19c5.27,-3.18 25.28,-7.3 53.37,-25.41 17.22,-11.1 20.4,-14.74 32.99,-26.42 1.83,-1.7 3.03,-2.96 4.73,-4.8l9.43 -10.37c1.89,-2.08 2.44,-2.75 4.35,-5.13 18.48,-23.13 31.81,-50.3 39.65,-79.14 1.35,-4.98 2.17,-11.3 3.59,-15.86 4.02,-2.02 72.34,4.37 112.34,-62.24 11.69,-19.46 17.94,-41.12 17.91,-69.22 -0.04,-29.26 0,-58.53 0,-87.79 -0.03,-15.61 -0.03,-31.23 -0,-46.84 0.02,-16.87 -0.25,-27.58 -11.81,-34.91 -9.5,-6.02 -29.95,-3.89 -42.83,-3.89 -15.54,0 -31.09,-0.05 -46.63,0l-25.46 0.06c0.12,-9.57 1.26,-26.61 -1.75,-34.74 -1.78,-4.82 -4.9,-7.8 -7.79,-10.4 -4.67,-4.19 -7.03,-3.14 -12.25,-5.6l-3.58 0 -380.01 0 -3.6 0c-5.58,2.52 -7.31,1.24 -12.24,5.61 -3.05,2.71 -5.87,5.5 -7.79,10.43 -2.96,7.62 -1.7,25.22 -1.81,34.59zm430.87 50.91l75.95 -0.17c0.8,40.83 0.14,82.62 0.05,123.54 -0.05,19.61 -5.17,34.97 -14.3,47.47 -15.48,21.19 -30.72,23.83 -34.8,27.07 -9.63,1.67 -15.17,4.03 -26.92,4.65l-0 -180.59 0.03 -21.96z"/>
      <path class="fil1" d="M565.21 912.85l152.15 -0.27 -0.05 50.79 -152.15 -0.09 0.05 -50.43zm-76.02 75.73l304.1 0.04c-0.05,-15.76 1.98,-76.76 -2.21,-86.51 -1.77,-4.11 -6.83,-9.47 -10.54,-11.6 -5.8,-3.33 -11.6,-3.26 -18.93,-3.26 -15.07,0 -30.14,0.01 -45.21,0l-37.09 -0 -113.06 -0.22c-32,4.04 -63.28,-9.1 -74.56,14.62 -4.92,10.33 -2.5,70.71 -2.5,86.94z"/>
      <path class="fil2" d="M473.4 1039.31l335.68 0c4.78,-3.28 8.83,-4.39 9.48,-11.89 0.55,-6.35 0.06,-14.79 0.08,-21.38 0.09,-18.42 -8.62,-17.49 -25.35,-17.41l-304.1 -0.04c-16.72,0.31 -25.44,-1.31 -25.36,17.45 0.03,6.56 -0.47,15.07 0.09,21.38 0.67,7.66 4.74,8.55 9.48,11.89zm91.76 -76.02l152.15 0.09 0.05 -50.79 -152.15 0.27 -0.05 50.43z"/>
      <path class="fil3" d="M607.29 403.97l-3.78 9.16 -20.24 3.04c-12.4,2.01 -25.56,3.8 -38.14,5.83 -6.33,1.02 -14.38,0.9 -17.15,5.2 -4.19,6.51 2.65,11.33 4.77,14.28 5.28,3.74 10.15,11.28 16.27,16.11 4.52,3.56 12.06,12.21 16.37,16.87 3.04,2.76 5.55,5.82 8.53,8.92 4.06,4.22 5.87,3.7 4.86,10.82 -1,6.51 -11.66,67.23 -11.11,70.6 1.71,10.67 12.55,3.65 17.37,0.95 11.78,-6.6 23.56,-12.59 35.34,-19.3 5.91,-3.36 11.4,-6.19 17.39,-9.55 4.66,-2.61 5.26,-1.12 9.48,1.41 3.21,1.92 5.87,2.96 9.03,5.03 16.11,8.26 32.8,18.69 47.33,25.79 4.87,2.38 10.01,0.78 10.92,-4.47 0.95,-5.48 -6.96,-36.89 -6.82,-47.96 -0.55,-5.87 -2.11,-13.23 -3.1,-19.15 -2.36,-13.99 -1.43,-8.96 15.38,-26.48 3.93,-4.1 7.32,-7.61 11.26,-11.71l22.36 -22.75c10.91,-14.31 -16.64,-14.28 -25.98,-16.2l-39.57 -5.89 -8.9 -1.48 -16.59 -35.67c-3.21,-3.75 -9.44,-19.89 -12.46,-25.61 -2.3,-4.34 -3.61,-9.84 -9.55,-9.25 -4.8,0.47 -6.6,5.74 -8.78,10.24 -3.75,7.69 -21.78,47.83 -24.51,51.23z"/>
     </g>
    </g>
   </g>
   <path class="fil4 str0" d="M232.93 13.89l816.6 0c120.48,0 219.04,98.57 219.04,219.04l0 801.79c0,120.48 -98.57,219.04 -219.04,219.04l-816.6 0c-120.48,0 -219.04,-98.57 -219.04,-219.04l0 -801.79c0,-120.48 98.57,-219.04 219.04,-219.04z"/>
   <g>
   </g>
   <g style="clip-path:url(#id1)">
    <g>
     <g>
      <path class="fil5" d="M2753.35 334.99c-19.26,-13.69 -42.06,-28.48 -32.41,-68.41 13.32,-55.14 104.2,-54.35 108.84,11.11 3.02,42.54 -25.19,40.06 -34.52,63.69l0 167.52c47.14,7.84 58.83,16.59 87.65,37.95 11.48,-4.39 124.54,-68.02 133.46,-75.87 19.85,-17.48 1.67,-47.58 41.6,-63.82 59.84,-24.34 108.62,53.33 54.34,95.74 -34.23,26.75 -52.94,-4.21 -75.31,3.52 -11.82,4.09 -120.72,69.01 -130.32,76.66 6.07,22.94 23.41,39.7 35.67,56.91 19.33,27.15 8.4,43.05 9.81,73.19 20.7,14.56 45.62,25.44 66.77,38.83 45.97,29.1 38.18,-10.37 83.04,7.46 52.86,21.02 38.24,119.28 -33.5,105.38 -43.13,-8.35 -33.89,-34.46 -45.78,-60.46 -5.46,-11.94 -48.22,-30.87 -62.38,-39.08 -59.21,-34.32 -22.3,-12.1 -73.49,-7.65 -23.16,2.02 -30.69,-6.84 -49.07,-6.27 -10.67,0.33 -30.17,6.25 -42.42,7.94l-0.06 170.11c10.95,19.39 41.13,22.75 33.74,66.85 -4.02,23.99 -24.09,44.69 -51.79,46.09 -30.63,1.55 -52.96,-19.62 -57.25,-45.29 -6.34,-38.02 18.24,-49.3 33.85,-63.62l0 -177.69c-36.06,-28.78 -46.42,-2.37 -89.24,-15.43 -22.13,-6.75 -17.72,-9.24 -39.18,3.15 -21.89,12.64 -94.62,51.21 -99.43,62.88 -4.63,11.25 -5.09,54.99 -50.39,59.37 -75.37,7.3 -83.41,-104.73 -10.96,-110.04 50.03,-3.67 13.39,26.87 76.17,-10.02 21.61,-12.71 47.54,-29.2 69.77,-39.59 -17.22,-57.85 -35.3,-64.4 14.85,-133.87 -29.72,-19.76 -61.73,-34.82 -92.72,-54.01 -28.13,-17.43 -19.1,-15.91 -49.04,-7 -20.67,6.16 -40.96,-1.84 -52.47,-12.13 -55.87,-49.96 25.09,-129.98 74.96,-82.42 16.18,15.42 13.58,29.98 21,50.29 15.97,14.43 84.48,50.08 109.49,64.2 51.27,28.93 46.19,26.25 117.15,-17.55l-0.44 -178.64zm-352.96 109.09l0 30.68 9.15 15.86c11.28,18.6 22.22,20.81 27.51,28.91 8.46,12.94 5.11,219.68 2.67,225.66 -10.08,14.76 -14.12,9.51 -23.87,22.58 -5.72,7.67 -9.8,19.92 -15.45,29.49l0 26.44c16.64,28.46 21.03,54.43 67.85,54.83 53.94,0.46 9.69,-29.57 86.18,13.81 51.67,29.31 100.6,57.56 150.6,86.63 5.59,36.09 13.66,57.02 40.28,69.26 31.48,14.47 66.69,1.63 81.19,-16.78 8.87,-11.26 11.44,-23.2 15.6,-41.26 4.29,-18.65 9.65,-15.33 27.05,-25.48 23.68,-13.82 45.7,-26.98 69.17,-40.09 28.6,-15.98 89.74,-58.68 108.43,-54.18 19.27,4.65 20.66,11.86 47.04,6.78 62.39,-12.02 74.69,-98.28 14.42,-127.27l1.02 -227.6c16.18,-14.56 33.29,-24.25 37.59,-53.13 6.16,-41.39 -26.33,-95.61 -95.17,-71.88 -21.43,7.39 -42.35,-12.62 -59.22,-22.12 -38.46,-21.67 -77.39,-44.91 -115.09,-65.96 -41.11,-22.96 -24.53,-9.2 -39.5,-51.03 -5.95,-16.63 -18.01,-28.76 -31.46,-36.13l-16.52 -8.87 -29.22 0 -16.81 8.17c-14.61,7.41 -22.17,15.76 -28.63,27.73 -32.86,60.9 49.87,2.3 -121.55,104.65 -43.5,25.97 -72.93,51.58 -99.72,41.36 -58.33,-22.26 -78.96,25.67 -93.54,48.97z"/>
      <path class="fil6" d="M2788.68 977.51c2.37,34.97 -25.19,27.81 -29.05,14.72 -2.91,-9.87 3.41,-16.36 8.92,-18.7 8.78,-3.73 15.04,1.41 20.13,3.98zm-306.04 -157.35c-4.66,2.96 -10.02,8.73 -19.22,4.65 -4.96,-2.2 -12.2,-8.97 -9.33,-18.7 3.52,-11.91 32.38,-21.96 28.56,14.05zm586.61 -21.02c21.96,-7.61 27.19,0.43 24.79,21.49 -19.65,10.79 -37.93,2.5 -24.79,-21.49zm-298.26 -258.68c35.34,-7.7 71.43,8.76 88.82,27.58 9.78,10.59 16.48,24.14 22.17,41.77 8.89,27.6 12.78,17.81 26.53,33.95 25.35,29.76 7.21,69.76 -19.02,81.17 -25.24,10.98 -30.77,1.81 -49.54,-1.74 -15.97,-3.03 -28.81,7.72 -51.3,7.47 -27.81,-0.31 -31.63,-8.96 -50.83,-14.77 -18.52,-5.61 -28.4,4.81 -52.18,-0.21 -76.07,-16.04 -74.55,-123.23 -2.25,-140.28 29.43,-6.94 19.82,4.87 45.44,-14.92 12.12,-9.36 23.4,-15.94 42.17,-20.03zm317.17 -69.13c-8.56,5.02 -17.3,0.95 -21.13,-5.13 -9.02,-14.31 5.07,-19.5 5.07,-19.51 18.14,-13.59 33.02,14.7 16.06,24.64zm-631.94 -1.07c-6.58,-25.18 11,-35.53 23.4,-23.31 15.54,15.29 -0.62,29.76 -23.4,23.31zm312.67 -202.37c19.89,-8.68 28.81,21.48 11.11,28.13 -21.19,7.94 -28.79,-20.41 -11.11,-28.13zm-15.55 67.1l0.44 178.64c-70.96,43.8 -65.88,46.47 -117.15,17.55 -25.02,-14.11 -93.52,-49.76 -109.49,-64.2 -7.42,-20.31 -4.82,-34.87 -21,-50.29 -49.87,-47.56 -130.84,32.45 -74.96,82.42 11.51,10.29 31.81,18.29 52.47,12.13 29.94,-8.91 20.92,-10.43 49.04,7 30.99,19.19 63,34.25 92.72,54.01 -50.14,69.47 -32.06,76.02 -14.85,133.87 -22.23,10.39 -48.15,26.88 -69.77,39.59 -62.78,36.89 -26.14,6.35 -76.17,10.02 -72.45,5.31 -64.41,117.34 10.96,110.04 45.3,-4.39 45.76,-48.13 50.39,-59.37 4.81,-11.67 77.54,-50.24 99.43,-62.88 21.45,-12.39 17.04,-9.91 39.18,-3.15 42.81,13.06 53.18,-13.35 89.24,15.43l0 177.69c-15.62,14.32 -40.2,25.59 -33.85,63.62 4.28,25.67 26.61,46.84 57.25,45.29 27.7,-1.4 47.77,-22.09 51.79,-46.09 7.39,-44.1 -22.79,-47.46 -33.74,-66.85l0.06 -170.11c12.25,-1.69 31.76,-7.61 42.42,-7.94 18.38,-0.57 25.91,8.28 49.07,6.27 51.19,-4.45 14.28,-26.68 73.49,7.65 14.16,8.21 56.92,27.14 62.38,39.08 11.89,26 2.64,52.1 45.78,60.46 71.75,13.9 86.37,-84.37 33.5,-105.38 -44.86,-17.83 -37.07,21.63 -83.04,-7.46 -21.15,-13.39 -46.07,-24.26 -66.77,-38.83 -1.41,-30.14 9.52,-46.04 -9.81,-73.19 -12.26,-17.22 -29.59,-33.97 -35.67,-56.91 9.6,-7.65 118.5,-72.57 130.32,-76.66 22.37,-7.73 41.07,23.23 75.31,-3.52 54.28,-42.41 5.5,-120.08 -54.34,-95.74 -39.94,16.24 -21.75,46.34 -41.6,63.82 -8.91,7.85 -121.98,71.48 -133.46,75.87 -28.81,-21.36 -40.5,-30.11 -87.65,-37.95l0 -167.52c9.32,-23.64 37.53,-21.16 34.52,-63.69 -4.64,-65.45 -95.52,-66.24 -108.84,-11.11 -9.65,39.93 13.15,54.72 32.41,68.41z"/>
      <path class="fil5" d="M2770.99 540.46c-18.77,4.09 -30.05,10.67 -42.17,20.03 -25.63,19.79 -16.02,7.98 -45.44,14.92 -72.3,17.05 -73.82,124.24 2.25,140.28 23.78,5.02 33.66,-5.4 52.18,0.21 19.2,5.81 23.02,14.46 50.83,14.77 22.5,0.25 35.33,-10.5 51.3,-7.47 18.77,3.56 24.3,12.73 49.54,1.74 26.23,-11.41 44.38,-51.42 19.02,-81.17 -13.75,-16.14 -17.65,-6.35 -26.53,-33.95 -5.68,-17.63 -12.38,-31.18 -22.17,-41.77 -17.39,-18.82 -53.48,-35.28 -88.82,-27.58z"/>
      <path class="fil6" d="M2400.39 797.25c5.65,-9.57 9.73,-21.83 15.45,-29.49 9.75,-13.07 13.79,-7.81 23.87,-22.58 2.44,-5.98 5.8,-212.72 -2.67,-225.66 -5.3,-8.09 -16.24,-10.3 -27.51,-28.91l-9.15 -15.86 0 322.49z"/>
      <path class="fil5" d="M2768.9 267.89c-17.68,7.72 -10.07,36.07 11.11,28.13 17.7,-6.65 8.78,-36.81 -11.11,-28.13z"/>
      <path class="fil5" d="M2456.22 470.26c22.78,6.44 38.94,-8.03 23.4,-23.31 -12.41,-12.21 -29.98,-1.87 -23.4,23.31z"/>
      <path class="fil5" d="M3072.1 446.69c-0,0 -14.09,5.2 -5.07,19.51 3.83,6.09 12.57,10.15 21.13,5.13 16.95,-9.94 2.07,-38.23 -16.06,-24.64z"/>
      <path class="fil5" d="M2768.55 973.53c-5.5,2.34 -11.82,8.82 -8.92,18.7 3.86,13.1 31.42,20.25 29.05,-14.72 -5.09,-2.57 -11.35,-7.71 -20.13,-3.98z"/>
      <path class="fil5" d="M2454.08 806.11c-2.87,9.73 4.37,16.5 9.33,18.7 9.21,4.07 14.57,-1.69 19.22,-4.65 3.82,-36 -25.04,-25.95 -28.56,-14.05z"/>
      <path class="fil5" d="M3069.25 799.14c-13.14,23.99 5.14,32.28 24.79,21.49 2.4,-21.07 -2.83,-29.1 -24.79,-21.49z"/>
     </g>
    </g>
   </g>
   <path class="fil4 str0" d="M2365.67 13.89l816.6 0c120.48,0 219.04,98.57 219.04,219.04l0 801.79c0,120.48 -98.57,219.04 -219.04,219.04l-816.6 0c-120.48,0 -219.04,-98.57 -219.04,-219.04l0 -801.79c0,-120.48 98.57,-219.04 219.04,-219.04z"/>
   <g>
   </g>
   <g style="clip-path:url(#id2)">
    <g>
     <g>
      <path class="fil7" d="M4702.63 737.57c11.93,-11.8 9.63,-16.68 17.02,-31.56 55.07,11.55 44.1,31.64 80.62,-130.75 18.93,-84.15 36.04,-95.43 -33.43,-105.95l11.07 -47.71 87.21 21.28 16.04 -72.45 42.61 10.56 -16.11 69.4 31.91 10 18.31 -69.8 42.73 9.65 -16.57 71.58c6.37,5.85 38,18.71 48.15,26.11 51.04,37.18 50.62,104.92 -0.85,136.45 -2.65,1.63 -5.02,2.91 -7.36,4.64l-8 6.79c31.4,7.15 39.57,44.62 46.64,54.41 -11.07,49.59 -7.44,70.15 -42.41,99 -33.09,27.3 -76.08,11.3 -117.11,12.37l-17.41 72.11 -42.67 -10.76 15.67 -72.96 -32.55 -8.38 -16.83 71.83 -42.62 -12.1 16.66 -72.91 -83.63 -21.39c2.53,-15.17 3.64,-5.29 2.93,-19.46zm595.33 2.34c17.09,-53.22 17.57,-120.41 8.23,-176.97 -12.11,-73.27 -47.09,-139.19 -93.91,-195.22 -33.28,-44.06 -106.47,-92.84 -162.22,-113.3 -169.31,-62.14 -326.8,-13.71 -442.81,106.97l-5.47 5.24c-18.98,17.98 -35.91,46.57 -48.83,69.24 -48.45,85.07 -65.5,193.88 -40.1,297.11l2.03 5.03c8.16,41.06 32.72,89.91 53.4,119.89 159.14,230.62 468.43,237.17 636.03,50.3 18.75,-20.91 20.37,-20.23 38.49,-47.23 22.91,-34.12 43.41,-74.13 55.16,-121.07z"/>
      <path class="fil8" d="M4864.63 640.63c38.55,2 113.35,24.53 107.67,74.2 -1.32,11.52 -9.43,23.37 -18.34,29.22 -28.22,18.53 -89.54,-3.13 -114.27,-5.87l24.94 -97.54zm32.22 -133.7c37.8,1.79 92.25,22.17 88.1,64.08 -5.15,52.02 -72.29,32.43 -111.01,23.55l22.91 -87.63zm-194.22 230.64c0.71,14.17 -0.39,4.28 -2.93,19.46l83.63 21.39 -16.66 72.91 42.62 12.1 16.83 -71.83 32.55 8.38 -15.67 72.96 42.67 10.76 17.41 -72.11c41.04,-1.07 84.02,14.93 117.11,-12.37 34.97,-28.85 31.34,-49.41 42.41,-99 -7.07,-9.79 -15.24,-47.26 -46.64,-54.41l8 -6.79c2.35,-1.73 4.71,-3.02 7.36,-4.64 51.48,-31.54 51.9,-99.28 0.85,-136.45 -10.15,-7.4 -41.78,-20.26 -48.15,-26.11l16.57 -71.58 -42.73 -9.65 -18.31 69.8 -31.91 -10 16.11 -69.4 -42.61 -10.56 -16.04 72.45 -87.21 -21.28 -11.07 47.71c69.47,10.52 52.35,21.8 33.43,105.95 -36.52,162.39 -25.54,142.3 -80.62,130.75 -7.38,14.88 -5.09,19.76 -17.02,31.56z"/>
      <path class="fil7" d="M4839.69 738.16c24.74,2.74 86.06,24.4 114.27,5.87 8.91,-5.85 17.02,-17.7 18.34,-29.22 5.69,-49.67 -69.11,-72.2 -107.67,-74.2l-24.94 97.54z"/>
      <path class="fil7" d="M4873.94 594.56c38.72,8.87 105.86,28.46 111.01,-23.55 4.15,-41.91 -50.3,-62.29 -88.1,-64.08l-22.91 87.63z"/>
     </g>
    </g>
   </g>
   <path class="fil4 str0" d="M4498.4 13.89l816.6 0c120.48,0 219.04,98.57 219.04,219.04l0 801.79c0,120.48 -98.57,219.04 -219.04,219.04l-816.6 0c-120.48,0 -219.04,-98.57 -219.04,-219.04l0 -801.79c0,-120.48 98.57,-219.04 219.04,-219.04z"/>
   <g>
   </g>
   <g style="clip-path:url(#id3)">
    <g>
     <g>
      <path class="fil9" d="M7218.68 757.48c3.37,-9.31 3.35,-27.71 -2.15,-35.83 -4.12,-6.08 -3,-7.95 -7.77,-13.29 -19.41,-21.72 -51.38,-24.93 -74.05,-4.98l-117.3 89.76c-21.8,13.8 -23.36,18.19 -34.85,26.61l-58.93 44.66c-4.39,3.29 -8.21,5.1 -12.67,8.48l-22.39 17.98c-5.3,3.78 -8.04,5.38 -11.96,9.03 -33.37,31.07 -16.58,72.45 4.37,80.87 24.39,9.8 38.76,10.09 63.04,-3.71l93.63 -71.39c13.19,-13.03 32.01,-24.11 47.39,-35.23l34.8 -28.06c5.53,-3.75 6,-3.87 11.12,-8.46l23.87 -18.13c5.06,-4.04 7.87,-4.5 12.99,-8.17 4.73,-3.4 5.67,-5.65 10.24,-9.02 4.21,-3.11 9.23,-4.88 12.77,-8.3 11.17,-10.81 21.89,-16.27 27.87,-32.79z"/>
      <path class="fil10" d="M7161.91 285.41c-11.03,2.34 -13.78,0.87 -28.08,12.65 -6.63,5.46 -15,11.87 -22.78,17.71 -23.89,17.91 -12.52,10.7 -36.84,24.78 -3.66,2.11 -8.57,6.04 -12.06,8.86l-46.47 36c-8.15,5.89 -15.95,10.75 -23.3,17.14 -24.63,21.4 -105.97,78.71 -116.17,89.25 -6.18,6.39 -13.59,14.98 -15.8,24.94 -9.4,42.35 27.74,70.84 59.37,63.94 11.94,-2.6 39.73,-22.61 49.52,-31.38 7.02,-6.28 16.13,-11.1 23.24,-17.2 21.25,-18.2 47.44,-36.28 70.49,-54.1l92.98 -70.47c32.74,-25.39 81.24,-51.11 57.98,-96 -8.07,-15.57 -30.43,-30.7 -52.09,-26.11z"/>
      <path class="fil11" d="M7082.61 536.57l-82.97 62.62c-5.17,3.74 -4.48,4.57 -9.27,8.38l-73.53 56.08c-2.46,7.21 0.17,2.99 -10.28,10.7l-34.59 28.37c-13.53,16.23 -13.39,43.43 0.17,60.68 11.59,14.73 42.94,23.46 63.67,9.64 13.89,-9.27 40.26,-33.43 50.47,-35.28 9.36,-3.63 22.98,-17.6 28.07,-22.02 4.56,-3.95 10.2,-6.31 15.25,-10.69 18.52,-16.06 63.86,-47.67 74.67,-57.99 13.38,-12.79 42.47,-29.23 45.82,-31.93l29.46 -23.78c5.46,-4.86 23.26,-14.94 29.47,-23.77 2.5,-3.55 7.54,-15.23 7.3,-18.29 1.54,-9.87 2.78,-20.43 -0.7,-29.31 -5.34,-13.63 -17.57,-26.32 -30.46,-30.64 -5.47,-1.83 -22.84,-1.7 -28.86,-0.87 -21.22,2.92 -55.96,45.05 -73.68,48.1z"/>
      <path class="fil12" d="M6906.93 281.21c-12.75,4.15 -24.42,7.02 -36.41,18.83l-9.94 17.03c-2.44,6.63 -2.49,18.74 -1.46,26.02 2.59,18.28 19.1,40.14 37.06,44.54 23.13,5.66 30.62,1.12 44.95,-5.37 7.55,-3.42 10.69,-5.52 15.72,-12.06 40.05,-51.96 -19.4,-98.94 -49.93,-89z"/>
      <path class="fil13" d="M6986.28 737.76c-10.21,1.85 -36.58,26.02 -50.47,35.28 -20.72,13.82 -52.08,5.09 -63.67,-9.64 -13.56,-17.25 -13.7,-44.45 -0.17,-60.68l34.59 -28.37c10.45,-7.71 7.82,-3.49 10.28,-10.7 -11.59,3.03 -45.36,32.2 -50.84,39.59 -14.98,20.21 -9.5,49.09 4.77,64.72 14.52,15.91 41.24,23.62 65.75,9.36 8.96,-5.21 16.78,-12.56 25.16,-18.63l19.69 -14.37c1.97,-1.69 0.63,-0.18 2.66,-2.73 2.56,-3.22 -0.46,1.49 2.24,-3.82z"/>
      <path class="fil14" d="M7082.61 536.57c17.72,-3.05 52.46,-45.18 73.68,-48.1 6.02,-0.83 23.39,-0.96 28.86,0.87 12.89,4.31 25.12,17 30.46,30.64 3.48,8.88 2.24,19.44 0.7,29.31 5.8,-2.83 2.25,1.08 4.47,-6.91 5.81,-20.86 -14,-65.95 -60.77,-60.35 -17.36,2.08 -47.55,30.06 -67.47,44.72 -0.38,0.28 -4.45,3.2 -4.55,3.29l-5.38 6.54z"/>
      <path class="fil15" d="M7199.1 892.51c-12.75,4.15 -24.42,7.02 -36.41,18.83l-9.94 17.03c-2.44,6.63 -2.49,18.74 -1.46,26.02 2.59,18.28 19.1,40.14 37.06,44.54 23.13,5.66 30.62,1.12 44.95,-5.37 7.55,-3.42 10.69,-5.52 15.72,-12.06 40.05,-51.96 -19.4,-98.94 -49.93,-89z"/>
     </g>
    </g>
   </g>
   <path class="fil4 str0" d="M6631.14 13.89l816.6 0c120.48,0 219.04,98.57 219.04,219.04l0 801.79c0,120.48 -98.57,219.04 -219.04,219.04l-816.6 0c-120.48,0 -219.04,-98.57 -219.04,-219.04l0 -801.79c0,-120.48 98.57,-219.04 219.04,-219.04z"/>
   <g>
   </g>
   <g style="clip-path:url(#id4)">
    <g>
     <g>
      <path class="fil16" d="M828.92 2617.61l-247.05 -0.14c-54.64,0.72 -109.85,-0.01 -164.57,-0.01 -27.69,0 -55.37,-0.05 -83.06,0.07 -29.25,0.13 -46.69,-4.35 -52.97,-30.82l-0.7 -174.49 0.1 -299.09 372.29 -0.01 150.45 -0.01 198.07 0.08 0.07 421.07c0.02,28.01 5.15,57.22 -12.23,73.72 -15.74,14.94 -52.61,9.54 -75.98,9.57 -28.1,0.04 -56.33,0.34 -84.42,0.07zm-285.61 -584.85l195.85 0c7.57,0 14.46,3.01 19.55,7.89l346.26 0.08c21.26,0.11 35.49,9.08 39.83,26.89 5.91,24.24 -7.34,31.39 -19.21,42.85 -16.82,3.36 -33.18,2.22 -51.96,2.58 2.07,135.2 0.19,271.97 0.19,407.34 0,29.7 3.37,68.67 -5.55,95.02 -33.51,99 -142.91,71.31 -230.41,74.35 6,10.87 48.36,50.05 60.56,62.44 30.23,30.71 46.86,39.94 14.66,77.18 -35.76,10.06 -36.64,1.6 -55.88,-17.52 -15.8,-15.69 -112.4,-116.16 -122.71,-119.11 -2.59,-2.94 4.43,-2.74 -8.01,-3.24l-178.43 0.96c-15.85,12.33 -24.34,24.02 -38.22,37.73l-90.41 89.63c-27.1,31 -57.56,13.3 -65.03,-8.59 -8.53,-24.99 10.07,-37.95 20.09,-47.94 13.58,-13.54 62.61,-59.35 69.63,-71.37 -38.2,-2.16 -82.53,-0.31 -121.39,-0.2 -50.5,0.13 -61.11,-15.79 -87.24,-35.78 -5.75,-9.47 -10.87,-14.01 -17.06,-27 -5.63,-11.81 -7.91,-21.13 -9.34,-35.03l-0.53 -478.36 -42.93 -1.12c-43.22,-10.93 -37.98,-70.64 10.45,-71.63 115.87,-0.14 231.75,-0.1 347.63,-0.11 5.09,-4.93 12.02,-7.96 19.62,-7.96z"/>
      <path class="fil17" d="M604.93 2347.37l-0.04 80.75c0,31.79 -7.43,71.32 25.77,79.67 18.63,4.68 30.51,-1.52 38.97,-11.91 10.3,-12.63 7.75,-25.15 7.69,-44.69l0 -179.96c0,-20.89 -1.38,-35.92 -16.94,-44.73 -14.6,-8.26 -34.31,-6.73 -45.24,4.93 -12.09,12.91 -10.28,29.63 -10.26,51.34 0.02,21.53 0.06,43.07 0.05,64.6z"/>
      <path class="fil18" d="M749.25 2312.76l0.01 131.51c-0,31.49 -1.94,58.95 28.66,64.02 16.3,2.7 26.69,-2.24 34.24,-10.64 12.35,-13.74 9.13,-26.24 9.12,-48.77l-0.02 -136.12c-0.02,-17.04 3.34,-54.57 -34.8,-55.67 -38.78,-1.11 -37.2,35.8 -37.2,55.67z"/>
      <path class="fil19" d="M488.19 2318.62c-36.93,10.21 -27.22,47.1 -27.26,104.89 -0.01,14.18 -1.82,52.08 1.86,62.68 11.3,32.56 69.63,34.63 70.05,-16.44 0.16,-19.13 2.15,-118.85 -2.09,-129.81 -5.75,-14.84 -22.81,-26.78 -42.56,-21.32z"/>
     </g>
    </g>
   </g>
   <path class="fil4 str0" d="M232.93 1813.71l816.6 0c120.48,0 219.04,98.57 219.04,219.04l0 801.79c0,120.48 -98.57,219.04 -219.04,219.04l-816.6 0c-120.48,0 -219.04,-98.57 -219.04,-219.04l0 -801.79c0,-120.48 98.57,-219.04 219.04,-219.04z"/>
   <g>
   </g>
   <g style="clip-path:url(#id5)">
    <g>
     <g>
      <path class="fil20" d="M2596.8 2428.05c-0.04,-8.7 -1.14,-50.07 0.52,-55.38 6.1,-2.87 65.62,-0.95 77.67,-0.95 10.7,0 28.02,-1.52 35.79,3.32 16.89,10.53 21.31,35.12 -0.33,49.49 -5.85,3.89 -7.29,3.46 -15.84,3.56l-97.8 -0.04zm355.11 -0.59c-9.96,2.43 -63.34,0.6 -78.63,0.6 -13.76,0 -25.52,1.63 -35.22,-3.77 -8.54,-4.76 -14.58,-12.43 -14.69,-24.4 -0.28,-32.2 33.69,-28.17 49.91,-28.17 10.76,-0 72.14,-0.73 77.38,0.32 3.07,10.28 -0.53,41.78 1.24,55.42zm-354.81 -93.85c-0.85,-8.17 -1.54,-49.36 0.52,-55.29l77.36 -0.28c13.03,0 26.33,-1.86 35.48,3.53 22.43,13.22 15.85,42.87 -0.93,49.57 -10.35,4.14 -22.95,2.72 -35.63,2.72l-76.8 -0.26zm256.57 0.3c-41.69,0 -39.46,-55.92 0,-55.92l82.81 0.06c16.19,0 14.99,-3.74 14.99,11.81l-0.3 44 -97.49 0.05zm97.8 -101.79c0,13.52 -4.1,9.28 -18.26,9.29 -20.21,0.01 -69.84,1.17 -83.81,-0.08 -33.93,-3.04 -36.73,-56.54 4.27,-56.54l97.86 0.16 -0.06 47.17zm-353.84 9.03c-1.7,-7.27 -1.49,-47.61 -0.57,-56.1 22.73,-2 54.25,-0.22 77.94,-0.22 12.36,0 26.65,-1.66 36.2,3.53 7.56,4.1 14.06,13.43 13.74,25.21 -0.86,30.97 -34.25,27.85 -49.94,27.85l-77.36 -0.26zm-0.82 186.9c-5.03,23.8 4.44,62.52 11,81.59 13.41,38.98 50.51,80.64 89.33,97.11 3.09,1.31 4.63,2.49 7.25,3.57 2.81,1.17 5.78,2.1 8.67,3.25 6.5,2.59 20.8,6.68 28.4,7.21 11.79,0.82 2.62,3.15 32.68,3.17 6.54,0 16.46,0.18 22.7,-0.8 40.47,-6.33 80.39,-24.82 107.77,-55.77 32.83,-37.1 52.67,-86.6 47.31,-139.93 3.19,-7.11 0.46,-63.39 0.46,-76.58 0.02,-25.91 0.72,-51.38 0.04,-77.36 -2.74,-103.55 19.27,-191.71 -86.18,-260.87 -6.5,-4.27 -17.99,-9.98 -26.27,-13 -30.57,-11.16 -68.57,-17.44 -101.17,-9.56 -9.93,2.4 -19.43,5.97 -29.44,9.4 -5.42,1.86 -7.98,4 -12.64,5.76 -13.46,5.1 -34.88,21.54 -45.83,31.72 -14.18,13.19 -32.67,38.31 -40.19,57.92 -6.24,16.27 -5.35,16.52 -9.65,29.84 -8.92,27.6 -4.24,114.28 -5.16,148.8l0.93 154.53z"/>
      <path class="fil21" d="M2691.7 2710.82c9.85,-0.86 13.66,6.24 29.09,8.14 4.17,0.51 8.99,0.74 12.15,1.4 33.08,6.91 69.46,3.06 102.15,-3.36 6.06,-1.19 17.88,-8.16 30.37,-9.83 7.59,0.21 22.26,-9.2 29.54,-11.96 9.9,-3.76 19.33,-10.51 27.17,-15.4 50.18,-31.32 89.54,-84.32 109.29,-142.49 6.31,-18.58 12.98,-49.47 13.19,-70.94l0.34 -167.79c0,-12.58 1.99,-28.41 -3.3,-38.65 -6.99,-13.53 -42.85,-22.35 -42.73,20.12l0 126.39c0,58.44 2.99,92.44 -22.66,145.5 -13.97,28.89 -31.54,50.81 -55,71.45 -20.56,18.09 -40.16,29.37 -65.7,39.11 -5.6,2.14 -7.34,4.11 -14.11,6.02 -61.05,17.26 -119.75,11.52 -175.51,-17.72 -42.38,-22.22 -79.59,-63.49 -99.17,-110.2 -21.17,-50.52 -17.51,-90.04 -17.51,-150.52 0,-13.9 1.37,-116.33 -1.29,-125.06 -2.95,-9.69 -12.35,-17.83 -24.22,-16.46 -27.08,3.15 -20.51,38.77 -20.51,64.17 0,39.96 -1.55,132.59 1.1,166.72 4.67,60.2 40.35,132.28 82.41,168.83 22.66,19.69 22.15,20.5 47.23,36.58 8.78,5.63 17.65,9.83 27.56,14.8 5.08,2.54 24.42,10.54 30.12,11.13z"/>
      <path class="fil21" d="M2596.47 2835.72c29.48,0 58.91,0 88.32,0 15.5,0 29.03,-1.39 44.67,-1.39l89.34 0c42.3,-0 90.98,3.26 133.63,0.75 0.32,9.03 1.71,36.2 -0.72,43.14l-355.18 0.01 -0.07 -42.5zm95.23 -124.91c3.65,3.7 10.33,1.89 12.54,5.4 2.23,3.54 0.91,110.76 0.79,116.99l-98.69 0.02c-7.89,-0.04 -8.9,-1.07 -11.1,1.24 -2.78,2.52 -1.23,38.3 -1,45.02 7.94,2.52 297.43,0.35 348.81,0.85 1.31,0.02 4.31,0.11 5.46,-0l3.43 -0.92c4.21,-10.47 1.76,-9.24 1.76,-22.99 -0,-20.24 2.98,-22.55 -7.31,-22.72 -2.11,-0.04 -4.48,0.07 -6.63,0.07 -26.84,0.09 -73.28,0.96 -95.89,-0.2 -1.09,-9.29 -2.43,-115.6 1.01,-117.76 3.94,-2.47 5.72,-2.37 10.37,-3.81 5.42,-1.68 7.37,-1.18 10.22,-4.83 -12.5,1.67 -24.32,8.64 -30.37,9.83 -32.69,6.41 -69.07,10.26 -102.15,3.36 -3.15,-0.66 -7.98,-0.89 -12.15,-1.4 -15.43,-1.9 -19.24,-9 -29.09,-8.14z"/>
      <path class="fil21" d="M2596.53 2878.23l355.18 -0.01c2.44,-6.94 1.05,-34.11 0.72,-43.14 -42.66,2.51 -91.33,-0.75 -133.63,-0.75l-89.34 0c-15.64,0 -29.17,1.39 -44.67,1.39 -29.42,0 -58.84,0 -88.32,0l0.07 42.5z"/>
      <path class="fil22" d="M2597.62 2241.15l77.36 0.26c15.69,0 49.08,3.12 49.94,-27.85 0.33,-11.78 -6.18,-21.11 -13.74,-25.21 -9.56,-5.19 -23.85,-3.53 -36.2,-3.53 -23.69,0 -55.21,-1.78 -77.94,0.22 -0.91,8.49 -1.12,48.83 0.57,56.1z"/>
      <path class="fil22" d="M2951.91 2427.47c-1.77,-13.64 1.82,-45.13 -1.24,-55.42 -5.24,-1.06 -66.62,-0.33 -77.38,-0.32 -16.22,0 -50.19,-4.04 -49.91,28.17 0.1,11.97 6.15,19.64 14.69,24.4 9.7,5.41 21.46,3.77 35.22,3.77 15.29,0 68.66,1.83 78.63,-0.6z"/>
      <path class="fil22" d="M2951.46 2232.12l0.06 -47.17 -97.86 -0.16c-41,0 -38.2,53.5 -4.27,56.54 13.96,1.25 63.6,0.09 83.81,0.08 14.16,-0.01 18.26,4.23 18.26,-9.29z"/>
      <path class="fil22" d="M2596.8 2428.05l97.8 0.04c8.55,-0.1 9.99,0.32 15.84,-3.56 21.64,-14.37 17.23,-38.96 0.33,-49.49 -7.77,-4.84 -25.09,-3.32 -35.79,-3.32 -12.04,0 -71.56,-1.93 -77.67,0.95 -1.66,5.31 -0.56,46.68 -0.52,55.38z"/>
      <path class="fil22" d="M2597.1 2333.62l76.8 0.26c12.68,0 25.28,1.42 35.63,-2.72 16.78,-6.7 23.36,-36.35 0.93,-49.57 -9.15,-5.39 -22.45,-3.53 -35.48,-3.53l-77.36 0.28c-2.06,5.93 -1.37,47.11 -0.52,55.29z"/>
      <path class="fil22" d="M2853.67 2333.92l97.49 -0.05 0.3 -44c0,-15.55 1.2,-11.81 -14.99,-11.81l-82.81 -0.06c-39.46,0 -41.69,55.92 0,55.92z"/>
     </g>
    </g>
   </g>
   <path class="fil4 str0" d="M2365.67 1813.71l816.6 0c120.48,0 219.04,98.57 219.04,219.04l0 801.79c0,120.48 -98.57,219.04 -219.04,219.04l-816.6 0c-120.48,0 -219.04,-98.57 -219.04,-219.04l0 -801.79c0,-120.48 98.57,-219.04 219.04,-219.04z"/>
   <g>
   </g>
   <g style="clip-path:url(#id6)">
    <g>
     <path class="fil23" d="M5254.21 2394.34c46.51,-25.86 101.31,-47.37 147.71,-75.24 -10.6,-11.92 -349.84,-177.18 -374.35,-189.25 -46.52,-22.91 -38.72,-26.53 -63.25,-13.71 -158.74,82.94 -335.9,167.39 -498.79,249.07l-46.87 23.5c-4.7,2.69 -3.56,2.2 -7.17,4.83l130.4 75.11 -63.21 34.07 132.46 66.94c-8.45,8.88 -23.99,14.91 -34.61,20.18 -5.58,2.77 -12.5,5.66 -18.37,8.84l-14.85 11.41 275.24 135.82c20.04,10.22 24.2,17.46 43.75,8.62 20.58,-9.31 395.63,-192.8 404.86,-205.82l-79.56 -41.04 143.69 -73.42 -77.07 -39.91z"/>
    </g>
   </g>
   <path class="fil4 str0" d="M4498.4 1813.71l816.6 0c120.48,0 219.04,98.57 219.04,219.04l0 801.79c0,120.48 -98.57,219.04 -219.04,219.04l-816.6 0c-120.48,0 -219.04,-98.57 -219.04,-219.04l0 -801.79c0,-120.48 98.57,-219.04 219.04,-219.04z"/>
   <g>
   </g>
   <g style="clip-path:url(#id7)">
    <g>
     <g>
      <path class="fil24" d="M7052.23 2306.22c26.55,-19.24 192.57,-52.1 245.85,-73.45 61.26,-24.54 119.11,-133.09 74.24,-216.1 -38.29,-70.84 -176.64,-11.98 -238.98,7.85 -112.44,35.78 -227.74,71.59 -341.21,104.61 16.13,59.28 143,126.16 260.1,177.08z"/>
      <path class="fil25" d="M7249.63 2399.27c-41.9,-18.31 -169.72,-70.1 -198.68,-92.05 0.38,-0.33 0.81,-0.67 1.28,-1.01 -117.11,-50.93 -243.98,-117.81 -260.1,-177.08 -5.71,1.66 -11.42,3.31 -17.12,4.96 -119.2,40.99 -137.17,237.22 -52.35,290.38 42.07,26.36 277.66,126.2 290.9,142.36 123.9,52.19 279.33,103.75 289.57,158.22 2.13,-0.92 3.77,-1.7 4.9,-2.35 59.4,-33.96 112.22,-91.5 98.63,-190.47 -11.76,-85.67 -87.3,-102.48 -157.04,-132.96z"/>
      <path class="fil26" d="M7303.13 2725.05c-10.24,-54.46 -165.68,-106.02 -289.57,-158.22 -15.52,8.62 -92.68,27.85 -113.06,33.66 -125.03,35.63 -244,39.36 -229.15,208.59 9.38,106.98 117,75.97 194.8,52.48 39.22,-11.84 384.44,-113.87 436.99,-136.51z"/>
     </g>
    </g>
   </g>
   <path class="fil4 str0" d="M6631.14 1813.71l816.6 0c120.48,0 219.04,98.57 219.04,219.04l0 801.79c0,120.48 -98.57,219.04 -219.04,219.04l-816.6 0c-120.48,0 -219.04,-98.57 -219.04,-219.04l0 -801.79c0,-120.48 98.57,-219.04 219.04,-219.04z"/>
  </g>
 </g>
</svg>
