<?xml version="1.0" encoding="UTF-8"?>
<!DOCTYPE svg PUBLIC "-//W3C//DTD SVG 1.1//EN" "http://www.w3.org/Graphics/SVG/1.1/DTD/svg11.dtd">
<!-- Creator: CorelDRAW -->
<svg xmlns="http://www.w3.org/2000/svg" xml:space="preserve" width="2.54166in" height="2.55555in" version="1.1" style="shape-rendering:geometricPrecision; text-rendering:geometricPrecision; image-rendering:optimizeQuality; fill-rule:evenodd; clip-rule:evenodd"
viewBox="0 0 534.99 537.92"
 xmlns:xlink="http://www.w3.org/1999/xlink"
 xmlns:xodm="http://www.corel.com/coreldraw/odm/2003">
 <defs>
  <style type="text/css">
   <![CDATA[
    .fil0 {fill:#ED3237}
   ]]>
  </style>
 </defs>
 <g id="Layer_x0020_1">
  <metadata id="CorelCorpID_0Corel-Layer"/>
  <path class="fil0" d="M-0 240.54l0 53.14c8.59,24.93 1.26,43.24 26.85,94.5 34.74,69.57 91.48,117.68 167.5,139.6 14.75,4.25 39.73,6.36 50.06,10.15l55.08 0c6.81,-3.37 3.85,-2 12.54,-4.09 35.14,-8.44 38.53,-6.57 76.35,-25.48 52.36,-26.18 94.16,-66.59 119.53,-120.26 6.41,-13.55 11.64,-27.12 16.13,-42.41 4.35,-14.77 5.1,-36.24 10.95,-50.11l0 -57.95c-9.13,-19.32 -4.01,-40.94 -29.39,-91.23 -26.17,-51.84 -66.35,-92.29 -120.19,-116.58 -37.89,-17.1 -79.47,-25.8 -87.64,-29.82l-38.95 0c-0.72,0.44 -1.69,0.9 -2.23,1.17l-19.78 10.58c-18.32,14 -22.56,44.18 -6.69,62.18 31.3,35.5 170.8,-3.57 210.92,154.49 34.98,137.82 -107.61,264.57 -241.69,206.66 -52.04,-22.48 -97.85,-69.07 -108.51,-136.96 -5.77,-36.76 0.98,-72.2 14.5,-102.12 17.12,-37.9 26.29,-44.12 52.61,-67.23 37.7,-33.1 26.89,-66.69 2.58,-78.92 -31.8,-15.99 -67.29,12.09 -81.62,26.14 -67.82,66.52 -71.7,149.26 -78.9,164.56z"/>
 </g>
</svg>
